# MagicaVoxel @ Ephtracy

# group
o 

# material
mtllib untitled.mtl
usemtl palette

# normals
vn -1 0 0
vn 1 0 0
vn 0 0 1
vn 0 0 -1
vn 0 -1 0
vn 0 1 0

# texcoords
vt 0.908203 0.5
vt 0.912109 0.5
vt 0.916016 0.5
vt 0.990234 0.5

# verts
v 1.6 2 -2.1
v 1.6 2 -2.2
v 1.6 2.1 -2
v 1.6 2.1 -2.1
v 1.6 2.1 -2.2
v 1.6 2.1 -2.3
v 1.6 2.2 -2.2
v 1.6 2.2 -2.3
v 1.6 2.4 -2.1
v 1.6 2.4 -2.2
v 1.6 2.4 -2.3
v 1.6 2.5 -2.1
v 1.6 2.5 -2.2
v 1.6 2.6 -2.1
v 1.6 2.6 -2.2
v 1.6 2.7 -2.2
v 1.6 2.7 -2.3
v 1.6 2.8 -2
v 1.6 2.8 -2.1
v 1.6 2.8 -2.2
v 1.6 2.8 -2.3
v 1.6 2.9 -2.1
v 1.6 2.9 -2.2
v 1.7 2 -2
v 1.7 2 -2.1
v 1.7 2 -2.2
v 1.7 2 -2.3
v 1.7 2.1 -1.9
v 1.7 2.1 -2
v 1.7 2.1 -2.1
v 1.7 2.1 -2.2
v 1.7 2.1 -2.3
v 1.7 2.1 -2.4
v 1.7 2.2 -2.3
v 1.7 2.4 -1.9
v 1.7 2.4 -2
v 1.7 2.4 -2.3
v 1.7 2.5 -1.9
v 1.7 2.5 -2
v 1.7 2.7 -2.3
v 1.7 2.8 -1.9
v 1.7 2.8 -2
v 1.7 2.8 -2.1
v 1.7 2.8 -2.2
v 1.7 2.8 -2.3
v 1.7 2.8 -2.4
v 1.7 2.9 -2
v 1.7 2.9 -2.1
v 1.7 2.9 -2.2
v 1.7 2.9 -2.3
v 1.8 2 -1.9
v 1.8 2 -2
v 1.8 2 -2.3
v 1.8 2 -2.4
v 1.8 2.1 -1.9
v 1.8 2.1 -2
v 1.8 2.1 -2.3
v 1.8 2.1 -2.4
v 1.8 2.8 -1.9
v 1.8 2.8 -2
v 1.8 2.8 -2.3
v 1.8 2.8 -2.4
v 1.8 2.9 -1.9
v 1.8 2.9 -2
v 1.8 2.9 -2.1
v 1.8 2.9 -2.2
v 1.8 2.9 -2.3
v 1.8 2.9 -2.4
v 1.8 3 -2.1
v 1.8 3 -2.2
v 1.8 3.1 -2.1
v 1.8 3.1 -2.2
v 1.9 2 -1.9
v 1.9 2 -2
v 1.9 2 -2.3
v 1.9 2 -2.4
v 1.9 2.1 -1.9
v 1.9 2.1 -2
v 1.9 2.1 -2.3
v 1.9 2.1 -2.4
v 1.9 2.8 -1.9
v 1.9 2.8 -2
v 1.9 2.8 -2.3
v 1.9 2.8 -2.4
v 1.9 2.9 -1.9
v 1.9 2.9 -2
v 1.9 2.9 -2.3
v 1.9 2.9 -2.4
v 2 2 -2
v 2 2 -2.1
v 2 2 -2.2
v 2 2 -2.3
v 2 2.1 -1.9
v 2 2.1 -2
v 2 2.1 -2.1
v 2 2.1 -2.2
v 2 2.1 -2.3
v 2 2.1 -2.4
v 2 2.2 -1.9
v 2 2.2 -2
v 2 2.2 -2.3
v 2 2.3 -2
v 2 2.3 -2.3
v 2 2.3 -2.4
v 2 2.4 -2.3
v 2 2.4 -2.4
v 2 2.6 -2
v 2 2.6 -2.3
v 2 2.7 -2
v 2 2.7 -2.3
v 2 2.8 -1.9
v 2 2.8 -2
v 2 2.8 -2.1
v 2 2.8 -2.2
v 2 2.8 -2.3
v 2 2.8 -2.4
v 2 2.9 -2
v 2 2.9 -2.1
v 2 2.9 -2.2
v 2 2.9 -2.3
v 2 3.1 -2.1
v 2 3.1 -2.2
v 2.1 2 -2.1
v 2.1 2 -2.2
v 2.1 2.1 -2
v 2.1 2.1 -2.1
v 2.1 2.1 -2.2
v 2.1 2.1 -2.3
v 2.1 2.2 -2
v 2.1 2.2 -2.3
v 2.1 2.3 -2
v 2.1 2.3 -2.1
v 2.1 2.3 -2.2
v 2.1 2.3 -2.3
v 2.1 2.6 -2
v 2.1 2.6 -2.1
v 2.1 2.6 -2.2
v 2.1 2.6 -2.3
v 2.1 2.7 -2
v 2.1 2.7 -2.3
v 2.1 2.8 -2
v 2.1 2.8 -2.1
v 2.1 2.8 -2.2
v 2.1 2.8 -2.3
v 2.1 2.9 -2.1
v 2.1 2.9 -2.2
v 1.7 2.1 -1.9
v 1.7 2.4 -1.9
v 1.7 2.5 -1.9
v 1.7 2.8 -1.9
v 1.8 2 -1.9
v 1.8 2.1 -1.9
v 1.8 2.2 -1.9
v 1.8 2.3 -1.9
v 1.8 2.4 -1.9
v 1.8 2.5 -1.9
v 1.8 2.7 -1.9
v 1.8 2.8 -1.9
v 1.8 2.9 -1.9
v 1.9 2 -1.9
v 1.9 2.1 -1.9
v 1.9 2.2 -1.9
v 1.9 2.3 -1.9
v 1.9 2.4 -1.9
v 1.9 2.5 -1.9
v 1.9 2.7 -1.9
v 1.9 2.8 -1.9
v 1.9 2.9 -1.9
v 2 2.1 -1.9
v 2 2.2 -1.9
v 2 2.8 -1.9
v 1.6 2.1 -2
v 1.6 2.8 -2
v 1.7 2 -2
v 1.7 2.1 -2
v 1.7 2.4 -2
v 1.7 2.5 -2
v 1.7 2.8 -2
v 1.7 2.9 -2
v 1.8 2 -2
v 1.8 2.1 -2
v 1.8 2.8 -2
v 1.8 2.9 -2
v 1.9 2 -2
v 1.9 2.1 -2
v 1.9 2.8 -2
v 1.9 2.9 -2
v 2 2 -2
v 2 2.1 -2
v 2 2.2 -2
v 2 2.3 -2
v 2 2.6 -2
v 2 2.7 -2
v 2 2.8 -2
v 2 2.9 -2
v 2.1 2.1 -2
v 2.1 2.2 -2
v 2.1 2.3 -2
v 2.1 2.6 -2
v 2.1 2.7 -2
v 2.1 2.8 -2
v 1.6 2 -2.1
v 1.6 2.1 -2.1
v 1.6 2.8 -2.1
v 1.6 2.9 -2.1
v 1.7 2 -2.1
v 1.7 2.1 -2.1
v 1.7 2.8 -2.1
v 1.7 2.9 -2.1
v 1.8 2.9 -2.1
v 1.8 3 -2.1
v 1.8 3.1 -2.1
v 1.9 2.9 -2.1
v 1.9 3 -2.1
v 2 2 -2.1
v 2 2.1 -2.1
v 2 2.8 -2.1
v 2 2.9 -2.1
v 2 3.1 -2.1
v 2.1 2 -2.1
v 2.1 2.1 -2.1
v 2.1 2.8 -2.1
v 2.1 2.9 -2.1
v 1.6 2 -2.2
v 1.6 2.1 -2.2
v 1.6 2.8 -2.2
v 1.6 2.9 -2.2
v 1.7 2 -2.2
v 1.7 2.1 -2.2
v 1.7 2.8 -2.2
v 1.7 2.9 -2.2
v 1.8 2.9 -2.2
v 1.8 3 -2.2
v 1.8 3.1 -2.2
v 1.9 2.9 -2.2
v 1.9 3 -2.2
v 2 2 -2.2
v 2 2.1 -2.2
v 2 2.8 -2.2
v 2 2.9 -2.2
v 2 3.1 -2.2
v 2.1 2 -2.2
v 2.1 2.1 -2.2
v 2.1 2.8 -2.2
v 2.1 2.9 -2.2
v 1.6 2.1 -2.3
v 1.6 2.2 -2.3
v 1.6 2.4 -2.3
v 1.6 2.7 -2.3
v 1.6 2.8 -2.3
v 1.7 2 -2.3
v 1.7 2.1 -2.3
v 1.7 2.2 -2.3
v 1.7 2.4 -2.3
v 1.7 2.7 -2.3
v 1.7 2.8 -2.3
v 1.7 2.9 -2.3
v 1.8 2 -2.3
v 1.8 2.1 -2.3
v 1.8 2.8 -2.3
v 1.8 2.9 -2.3
v 1.9 2 -2.3
v 1.9 2.1 -2.3
v 1.9 2.8 -2.3
v 1.9 2.9 -2.3
v 2 2 -2.3
v 2 2.1 -2.3
v 2 2.2 -2.3
v 2 2.3 -2.3
v 2 2.4 -2.3
v 2 2.6 -2.3
v 2 2.7 -2.3
v 2 2.8 -2.3
v 2 2.9 -2.3
v 2.1 2.1 -2.3
v 2.1 2.2 -2.3
v 2.1 2.3 -2.3
v 2.1 2.6 -2.3
v 2.1 2.7 -2.3
v 2.1 2.8 -2.3
v 1.7 2.1 -2.4
v 1.7 2.8 -2.4
v 1.8 2 -2.4
v 1.8 2.1 -2.4
v 1.8 2.2 -2.4
v 1.8 2.3 -2.4
v 1.8 2.4 -2.4
v 1.8 2.8 -2.4
v 1.8 2.9 -2.4
v 1.9 2 -2.4
v 1.9 2.1 -2.4
v 1.9 2.2 -2.4
v 1.9 2.3 -2.4
v 1.9 2.4 -2.4
v 1.9 2.8 -2.4
v 1.9 2.9 -2.4
v 2 2.1 -2.4
v 2 2.3 -2.4
v 2 2.4 -2.4
v 2 2.8 -2.4
v 1.8 2 -1.9
v 1.9 2 -1.9
v 1.7 2 -2
v 1.8 2 -2
v 1.9 2 -2
v 2 2 -2
v 1.6 2 -2.1
v 1.7 2 -2.1
v 1.8 2 -2.1
v 1.9 2 -2.1
v 2 2 -2.1
v 2.1 2 -2.1
v 1.6 2 -2.2
v 1.7 2 -2.2
v 1.8 2 -2.2
v 1.9 2 -2.2
v 2 2 -2.2
v 2.1 2 -2.2
v 1.7 2 -2.3
v 1.8 2 -2.3
v 1.9 2 -2.3
v 2 2 -2.3
v 1.8 2 -2.4
v 1.9 2 -2.4
v 1.7 2.1 -1.9
v 1.8 2.1 -1.9
v 1.9 2.1 -1.9
v 2 2.1 -1.9
v 1.6 2.1 -2
v 1.7 2.1 -2
v 1.8 2.1 -2
v 1.9 2.1 -2
v 2 2.1 -2
v 2.1 2.1 -2
v 1.6 2.1 -2.1
v 1.7 2.1 -2.1
v 2 2.1 -2.1
v 2.1 2.1 -2.1
v 1.6 2.1 -2.2
v 1.7 2.1 -2.2
v 2 2.1 -2.2
v 2.1 2.1 -2.2
v 1.6 2.1 -2.3
v 1.7 2.1 -2.3
v 1.8 2.1 -2.3
v 1.9 2.1 -2.3
v 2 2.1 -2.3
v 2.1 2.1 -2.3
v 1.7 2.1 -2.4
v 1.8 2.1 -2.4
v 1.9 2.1 -2.4
v 2 2.1 -2.4
v 1.7 2.8 -1.9
v 1.8 2.8 -1.9
v 1.9 2.8 -1.9
v 2 2.8 -1.9
v 1.6 2.8 -2
v 1.7 2.8 -2
v 1.8 2.8 -2
v 1.9 2.8 -2
v 2 2.8 -2
v 2.1 2.8 -2
v 1.6 2.8 -2.1
v 1.7 2.8 -2.1
v 2 2.8 -2.1
v 2.1 2.8 -2.1
v 1.6 2.8 -2.2
v 1.7 2.8 -2.2
v 2 2.8 -2.2
v 2.1 2.8 -2.2
v 1.6 2.8 -2.3
v 1.7 2.8 -2.3
v 1.8 2.8 -2.3
v 1.9 2.8 -2.3
v 2 2.8 -2.3
v 2.1 2.8 -2.3
v 1.7 2.8 -2.4
v 1.8 2.8 -2.4
v 1.9 2.8 -2.4
v 2 2.8 -2.4
v 1.8 2.9 -1.9
v 1.9 2.9 -1.9
v 1.7 2.9 -2
v 1.8 2.9 -2
v 1.9 2.9 -2
v 2 2.9 -2
v 1.6 2.9 -2.1
v 1.7 2.9 -2.1
v 1.8 2.9 -2.1
v 1.9 2.9 -2.1
v 2 2.9 -2.1
v 2.1 2.9 -2.1
v 1.6 2.9 -2.2
v 1.7 2.9 -2.2
v 1.8 2.9 -2.2
v 1.9 2.9 -2.2
v 2 2.9 -2.2
v 2.1 2.9 -2.2
v 1.7 2.9 -2.3
v 1.8 2.9 -2.3
v 1.9 2.9 -2.3
v 2 2.9 -2.3
v 1.8 2.9 -2.4
v 1.9 2.9 -2.4
v 1.8 3.1 -2.1
v 2 3.1 -2.1
v 1.8 3.1 -2.2
v 2 3.1 -2.2

# faces
f 4/3/1 2/3/1 1/3/1
f 5/3/1 2/3/1 4/3/1
f 7/3/1 4/3/1 3/3/1
f 7/3/1 6/3/1 5/3/1
f 7/3/1 5/3/1 4/3/1
f 8/3/1 6/3/1 7/3/1
f 9/3/1 7/3/1 3/3/1
f 10/2/1 8/2/1 7/2/1
f 10/3/1 7/3/1 9/3/1
f 11/2/1 8/2/1 10/2/1
f 12/3/1 9/3/1 3/3/1
f 12/1/1 10/1/1 9/1/1
f 13/3/1 11/3/1 10/3/1
f 13/1/1 10/1/1 12/1/1
f 14/3/1 12/3/1 3/3/1
f 14/2/1 13/2/1 12/2/1
f 15/3/1 11/3/1 13/3/1
f 15/2/1 13/2/1 14/2/1
f 16/3/1 15/3/1 14/3/1
f 16/3/1 11/3/1 15/3/1
f 17/3/1 11/3/1 16/3/1
f 18/3/1 14/3/1 3/3/1
f 18/3/1 16/3/1 14/3/1
f 19/3/1 16/3/1 18/3/1
f 20/2/1 17/2/1 16/2/1
f 20/3/1 16/3/1 19/3/1
f 21/2/1 17/2/1 20/2/1
f 22/3/1 20/3/1 19/3/1
f 23/3/1 20/3/1 22/3/1
f 29/3/1 25/3/1 24/3/1
f 30/3/1 25/3/1 29/3/1
f 31/3/1 27/3/1 26/3/1
f 32/3/1 27/3/1 31/3/1
f 34/3/1 33/3/1 32/3/1
f 35/3/1 29/3/1 28/3/1
f 36/3/1 29/3/1 35/3/1
f 37/3/1 33/3/1 34/3/1
f 38/2/1 36/2/1 35/2/1
f 39/2/1 36/2/1 38/2/1
f 40/3/1 33/3/1 37/3/1
f 41/3/1 39/3/1 38/3/1
f 42/3/1 39/3/1 41/3/1
f 45/3/1 33/3/1 40/3/1
f 46/3/1 33/3/1 45/3/1
f 47/3/1 43/3/1 42/3/1
f 48/3/1 43/3/1 47/3/1
f 49/3/1 45/3/1 44/3/1
f 50/3/1 45/3/1 49/3/1
f 55/3/1 52/3/1 51/3/1
f 56/3/1 52/3/1 55/3/1
f 57/3/1 54/3/1 53/3/1
f 58/3/1 54/3/1 57/3/1
f 63/1/1 60/1/1 59/1/1
f 64/1/1 60/1/1 63/1/1
f 67/1/1 62/1/1 61/1/1
f 68/1/1 62/1/1 67/1/1
f 69/3/1 66/3/1 65/3/1
f 70/3/1 66/3/1 69/3/1
f 71/4/1 70/4/1 69/4/1
f 72/4/1 70/4/1 71/4/1
f 73/3/2 74/3/2 77/3/2
f 77/3/2 74/3/2 78/3/2
f 75/3/2 76/3/2 79/3/2
f 79/3/2 76/3/2 80/3/2
f 81/1/2 82/1/2 85/1/2
f 85/1/2 82/1/2 86/1/2
f 83/1/2 84/1/2 87/1/2
f 87/1/2 84/1/2 88/1/2
f 89/3/2 90/3/2 94/3/2
f 94/3/2 90/3/2 95/3/2
f 91/3/2 92/3/2 96/3/2
f 96/3/2 92/3/2 97/3/2
f 93/2/2 94/2/2 99/2/2
f 99/2/2 94/2/2 100/2/2
f 97/3/2 98/3/2 101/3/2
f 99/3/2 100/3/2 102/3/2
f 101/3/2 98/3/2 103/3/2
f 103/3/2 98/3/2 104/3/2
f 103/2/2 104/2/2 105/2/2
f 105/2/2 104/2/2 106/2/2
f 99/3/2 102/3/2 107/3/2
f 105/3/2 106/3/2 108/3/2
f 99/3/2 107/3/2 109/3/2
f 108/3/2 106/3/2 110/3/2
f 99/3/2 109/3/2 111/3/2
f 111/3/2 109/3/2 112/3/2
f 110/3/2 106/3/2 115/3/2
f 115/3/2 106/3/2 116/3/2
f 112/3/2 113/3/2 117/3/2
f 117/3/2 113/3/2 118/3/2
f 114/3/2 115/3/2 119/3/2
f 119/3/2 115/3/2 120/3/2
f 118/4/2 119/4/2 121/4/2
f 121/4/2 119/4/2 122/4/2
f 123/3/2 124/3/2 126/3/2
f 126/3/2 124/3/2 127/3/2
f 125/3/2 126/3/2 129/3/2
f 127/3/2 128/3/2 129/3/2
f 126/3/2 127/3/2 129/3/2
f 129/3/2 128/3/2 130/3/2
f 129/2/2 130/2/2 131/2/2
f 131/2/2 130/2/2 132/2/2
f 132/2/2 130/2/2 133/2/2
f 133/2/2 130/2/2 134/2/2
f 131/3/2 132/3/2 135/3/2
f 132/1/2 133/1/2 136/1/2
f 135/3/2 132/3/2 136/3/2
f 133/3/2 134/3/2 137/3/2
f 136/1/2 133/1/2 137/1/2
f 137/3/2 134/3/2 138/3/2
f 135/2/2 136/2/2 139/2/2
f 136/2/2 137/2/2 139/2/2
f 137/2/2 138/2/2 139/2/2
f 139/2/2 138/2/2 140/2/2
f 139/3/2 140/3/2 141/3/2
f 141/3/2 140/3/2 142/3/2
f 142/3/2 140/3/2 143/3/2
f 143/3/2 140/3/2 144/3/2
f 142/3/2 143/3/2 145/3/2
f 145/3/2 143/3/2 146/3/2
f 152/3/3 148/3/3 147/3/3
f 153/3/3 148/3/3 152/3/3
f 154/3/3 148/3/3 153/3/3
f 155/2/3 149/2/3 148/2/3
f 155/3/3 148/3/3 154/3/3
f 156/3/3 150/3/3 149/3/3
f 156/2/3 149/2/3 155/2/3
f 157/3/3 150/3/3 156/3/3
f 158/3/3 150/3/3 157/3/3
f 160/3/3 152/3/3 151/3/3
f 160/3/3 153/3/3 152/3/3
f 161/3/3 153/3/3 160/3/3
f 162/2/3 154/2/3 153/2/3
f 162/3/3 153/3/3 161/3/3
f 163/1/3 155/1/3 154/1/3
f 163/2/3 154/2/3 162/2/3
f 164/3/3 156/3/3 155/3/3
f 164/1/3 155/1/3 163/1/3
f 165/2/3 157/2/3 156/2/3
f 165/3/3 156/3/3 164/3/3
f 166/3/3 158/3/3 157/3/3
f 166/2/3 157/2/3 165/2/3
f 167/1/3 159/1/3 158/1/3
f 167/3/3 158/3/3 166/3/3
f 168/1/3 159/1/3 167/1/3
f 169/2/3 162/2/3 161/2/3
f 170/3/3 167/3/3 166/3/3
f 170/2/3 162/2/3 169/2/3
f 170/3/3 166/3/3 165/3/3
f 170/3/3 165/3/3 164/3/3
f 170/3/3 164/3/3 163/3/3
f 170/3/3 163/3/3 162/3/3
f 171/3/3 167/3/3 170/3/3
f 175/3/3 173/3/3 172/3/3
f 176/3/3 173/3/3 175/3/3
f 177/3/3 173/3/3 176/3/3
f 178/3/3 173/3/3 177/3/3
f 180/3/3 175/3/3 174/3/3
f 181/3/3 175/3/3 180/3/3
f 182/3/3 179/3/3 178/3/3
f 183/3/3 179/3/3 182/3/3
f 188/3/3 185/3/3 184/3/3
f 189/3/3 185/3/3 188/3/3
f 194/3/3 187/3/3 186/3/3
f 195/3/3 187/3/3 194/3/3
f 196/3/3 190/3/3 189/3/3
f 197/2/3 191/2/3 190/2/3
f 197/3/3 190/3/3 196/3/3
f 198/3/3 192/3/3 191/3/3
f 198/2/3 191/2/3 197/2/3
f 199/2/3 193/2/3 192/2/3
f 199/3/3 192/3/3 198/3/3
f 200/3/3 194/3/3 193/3/3
f 200/2/3 193/2/3 199/2/3
f 201/3/3 194/3/3 200/3/3
f 206/3/3 203/3/3 202/3/3
f 207/3/3 203/3/3 206/3/3
f 208/3/3 205/3/3 204/3/3
f 209/3/3 205/3/3 208/3/3
f 213/3/3 211/3/3 210/3/3
f 214/4/3 212/4/3 211/4/3
f 214/3/3 211/3/3 213/3/3
f 218/4/3 214/4/3 213/4/3
f 219/4/3 212/4/3 214/4/3
f 219/4/3 214/4/3 218/4/3
f 220/3/3 216/3/3 215/3/3
f 221/3/3 216/3/3 220/3/3
f 222/3/3 218/3/3 217/3/3
f 223/3/3 218/3/3 222/3/3
f 224/3/4 225/3/4 228/3/4
f 228/3/4 225/3/4 229/3/4
f 226/3/4 227/3/4 230/3/4
f 230/3/4 227/3/4 231/3/4
f 232/3/4 233/3/4 235/3/4
f 233/4/4 234/4/4 236/4/4
f 235/3/4 233/3/4 236/3/4
f 235/4/4 236/4/4 240/4/4
f 236/4/4 234/4/4 241/4/4
f 240/4/4 236/4/4 241/4/4
f 237/3/4 238/3/4 242/3/4
f 242/3/4 238/3/4 243/3/4
f 239/3/4 240/3/4 244/3/4
f 244/3/4 240/3/4 245/3/4
f 246/3/4 247/3/4 252/3/4
f 247/2/4 248/2/4 253/2/4
f 252/3/4 247/3/4 253/3/4
f 248/3/4 249/3/4 254/3/4
f 253/2/4 248/2/4 254/2/4
f 249/2/4 250/2/4 255/2/4
f 254/3/4 249/3/4 255/3/4
f 255/2/4 250/2/4 256/2/4
f 251/3/4 252/3/4 258/3/4
f 258/3/4 252/3/4 259/3/4
f 256/3/4 257/3/4 260/3/4
f 260/3/4 257/3/4 261/3/4
f 262/3/4 263/3/4 266/3/4
f 266/3/4 263/3/4 267/3/4
f 264/3/4 265/3/4 273/3/4
f 273/3/4 265/3/4 274/3/4
f 267/3/4 268/3/4 275/3/4
f 268/2/4 269/2/4 276/2/4
f 275/3/4 268/3/4 276/3/4
f 269/3/4 270/3/4 277/3/4
f 276/2/4 269/2/4 277/2/4
f 270/3/4 271/3/4 277/3/4
f 271/2/4 272/2/4 278/2/4
f 277/3/4 271/3/4 278/3/4
f 272/3/4 273/3/4 279/3/4
f 278/2/4 272/2/4 279/2/4
f 279/3/4 273/3/4 280/3/4
f 281/3/4 282/3/4 284/3/4
f 284/3/4 282/3/4 285/3/4
f 285/3/4 282/3/4 286/3/4
f 286/3/4 282/3/4 287/3/4
f 287/3/4 282/3/4 288/3/4
f 283/3/4 284/3/4 290/3/4
f 284/2/4 285/2/4 291/2/4
f 290/3/4 284/3/4 291/3/4
f 285/3/4 286/3/4 292/3/4
f 291/2/4 285/2/4 292/2/4
f 286/1/4 287/1/4 293/1/4
f 292/3/4 286/3/4 293/3/4
f 287/2/4 288/2/4 294/2/4
f 293/1/4 287/1/4 294/1/4
f 288/1/4 289/1/4 295/1/4
f 294/2/4 288/2/4 295/2/4
f 295/1/4 289/1/4 296/1/4
f 291/3/4 292/3/4 297/3/4
f 292/3/4 293/3/4 297/3/4
f 293/2/4 294/2/4 298/2/4
f 297/3/4 293/3/4 298/3/4
f 294/3/4 295/3/4 299/3/4
f 298/2/4 294/2/4 299/2/4
f 299/3/4 295/3/4 300/3/4
f 304/3/5 302/3/5 301/3/5
f 305/3/5 302/3/5 304/3/5
f 308/3/5 304/3/5 303/3/5
f 309/2/5 305/2/5 304/2/5
f 309/3/5 304/3/5 308/3/5
f 310/3/5 306/3/5 305/3/5
f 310/2/5 305/2/5 309/2/5
f 311/3/5 306/3/5 310/3/5
f 313/3/5 308/3/5 307/3/5
f 314/2/5 309/2/5 308/2/5
f 314/3/5 308/3/5 313/3/5
f 315/3/5 310/3/5 309/3/5
f 315/2/5 309/2/5 314/2/5
f 316/2/5 311/2/5 310/2/5
f 316/3/5 310/3/5 315/3/5
f 317/3/5 312/3/5 311/3/5
f 317/2/5 311/2/5 316/2/5
f 318/3/5 312/3/5 317/3/5
f 319/3/5 315/3/5 314/3/5
f 320/2/5 316/2/5 315/2/5
f 320/3/5 315/3/5 319/3/5
f 321/3/5 317/3/5 316/3/5
f 321/2/5 316/2/5 320/2/5
f 322/3/5 317/3/5 321/3/5
f 323/3/5 321/3/5 320/3/5
f 324/3/5 321/3/5 323/3/5
f 330/3/5 326/3/5 325/3/5
f 331/3/5 326/3/5 330/3/5
f 332/2/5 328/2/5 327/2/5
f 333/2/5 328/2/5 332/2/5
f 335/3/5 330/3/5 329/3/5
f 336/3/5 330/3/5 335/3/5
f 337/3/5 334/3/5 333/3/5
f 338/3/5 334/3/5 337/3/5
f 343/3/5 340/3/5 339/3/5
f 344/3/5 340/3/5 343/3/5
f 347/3/5 342/3/5 341/3/5
f 348/3/5 342/3/5 347/3/5
f 349/3/5 345/3/5 344/3/5
f 350/3/5 345/3/5 349/3/5
f 351/3/5 347/3/5 346/3/5
f 352/3/5 347/3/5 351/3/5
f 353/3/6 354/3/6 358/3/6
f 358/3/6 354/3/6 359/3/6
f 355/3/6 356/3/6 360/3/6
f 360/3/6 356/3/6 361/3/6
f 357/3/6 358/3/6 363/3/6
f 363/3/6 358/3/6 364/3/6
f 361/3/6 362/3/6 365/3/6
f 365/3/6 362/3/6 366/3/6
f 367/2/6 368/2/6 371/2/6
f 371/2/6 368/2/6 372/2/6
f 369/3/6 370/3/6 375/3/6
f 375/3/6 370/3/6 376/3/6
f 372/3/6 373/3/6 377/3/6
f 377/3/6 373/3/6 378/3/6
f 374/3/6 375/3/6 379/3/6
f 379/3/6 375/3/6 380/3/6
f 381/1/6 382/1/6 384/1/6
f 384/1/6 382/1/6 385/1/6
f 383/3/6 384/3/6 388/3/6
f 385/3/6 386/3/6 388/3/6
f 384/3/6 385/3/6 388/3/6
f 388/3/6 386/3/6 389/3/6
f 389/3/6 386/3/6 390/3/6
f 390/3/6 386/3/6 391/3/6
f 387/3/6 388/3/6 393/3/6
f 388/3/6 389/3/6 393/3/6
f 393/3/6 389/3/6 394/3/6
f 394/3/6 389/3/6 395/3/6
f 391/3/6 392/3/6 397/3/6
f 397/3/6 392/3/6 398/3/6
f 395/3/6 396/3/6 399/3/6
f 396/3/6 397/3/6 399/3/6
f 394/3/6 395/3/6 399/3/6
f 399/3/6 397/3/6 400/3/6
f 400/3/6 397/3/6 401/3/6
f 401/3/6 397/3/6 402/3/6
f 400/1/6 401/1/6 403/1/6
f 403/1/6 401/1/6 404/1/6
f 405/4/6 406/4/6 407/4/6
f 407/4/6 406/4/6 408/4/6
