# MagicaVoxel @ Ephtracy

# group
o 

# material
mtllib GanharBalas.mtl
usemtl palette

# normals
vn -1 0 0
vn 1 0 0
vn 0 0 1
vn 0 0 -1
vn 0 -1 0
vn 0 1 0

# texcoords
vt 0.396484 0.5
vt 0.537109 0.5
vt 0.986328 0.5
vt 0.994141 0.5

# verts
v 0.6 3.6 -2
v 0.6 3.6 -2.1
v 0.6 4.3 -2
v 0.6 4.3 -2.1
v 0.7 3.3 -2
v 0.7 3.3 -2.1
v 0.7 3.6 -2
v 0.7 3.6 -2.1
v 0.7 4.3 -2
v 0.7 4.3 -2.1
v 0.7 4.6 -2
v 0.7 4.6 -2.1
v 0.8 3.1 -2
v 0.8 3.1 -2.1
v 0.8 3.3 -2
v 0.8 3.3 -2.1
v 0.8 4.6 -2
v 0.8 4.6 -2.1
v 0.8 4.8 -2
v 0.8 4.8 -2.1
v 0.9 3 -2
v 0.9 3 -2.1
v 0.9 3.1 -2
v 0.9 3.1 -2.1
v 0.9 4.8 -2
v 0.9 4.8 -2.1
v 0.9 4.9 -2
v 0.9 4.9 -2.1
v 1 2.9 -2
v 1 2.9 -2.1
v 1 3 -2
v 1 3 -2.1
v 1 4.9 -2
v 1 4.9 -2.1
v 1 5 -2
v 1 5 -2.1
v 1.1 2.8 -2
v 1.1 2.8 -2.1
v 1.1 2.9 -2
v 1.1 2.9 -2.1
v 1.1 5 -2
v 1.1 5 -2.1
v 1.1 5.1 -2
v 1.1 5.1 -2.1
v 1.2 2.7 -2
v 1.2 2.7 -2.1
v 1.2 2.8 -2
v 1.2 2.8 -2.1
v 1.2 5.1 -2
v 1.2 5.1 -2.1
v 1.2 5.2 -2
v 1.2 5.2 -2.1
v 1.4 2.6 -2
v 1.4 2.6 -2.1
v 1.4 2.7 -2
v 1.4 2.7 -2.1
v 1.4 5.2 -2
v 1.4 5.2 -2.1
v 1.4 5.3 -2
v 1.4 5.3 -2.1
v 1.7 2.5 -2
v 1.7 2.5 -2.1
v 1.7 2.6 -2
v 1.7 2.6 -2.1
v 1.7 5.3 -2
v 1.7 5.3 -2.1
v 1.7 5.4 -2
v 1.7 5.4 -2.1
v 2.4 2.5 -2
v 2.4 2.5 -2.1
v 2.4 2.6 -2
v 2.4 2.6 -2.1
v 2.4 5.3 -2
v 2.4 5.3 -2.1
v 2.4 5.4 -2
v 2.4 5.4 -2.1
v 2.7 2.6 -2
v 2.7 2.6 -2.1
v 2.7 2.7 -2
v 2.7 2.7 -2.1
v 2.7 5.2 -2
v 2.7 5.2 -2.1
v 2.7 5.3 -2
v 2.7 5.3 -2.1
v 2.9 2.7 -2
v 2.9 2.7 -2.1
v 2.9 2.8 -2
v 2.9 2.8 -2.1
v 2.9 5.1 -2
v 2.9 5.1 -2.1
v 2.9 5.2 -2
v 2.9 5.2 -2.1
v 3 2.8 -2
v 3 2.8 -2.1
v 3 2.9 -2
v 3 2.9 -2.1
v 3 5 -2
v 3 5 -2.1
v 3 5.1 -2
v 3 5.1 -2.1
v 3.1 2.9 -2
v 3.1 2.9 -2.1
v 3.1 3 -2
v 3.1 3 -2.1
v 3.1 4.9 -2
v 3.1 4.9 -2.1
v 3.1 5 -2
v 3.1 5 -2.1
v 3.2 3 -2
v 3.2 3 -2.1
v 3.2 3.1 -2
v 3.2 3.1 -2.1
v 3.2 4.8 -2
v 3.2 4.8 -2.1
v 3.2 4.9 -2
v 3.2 4.9 -2.1
v 3.3 3.1 -2
v 3.3 3.1 -2.1
v 3.3 3.3 -2
v 3.3 3.3 -2.1
v 3.3 4.6 -2
v 3.3 4.6 -2.1
v 3.3 4.8 -2
v 3.3 4.8 -2.1
v 3.4 3.3 -2
v 3.4 3.3 -2.1
v 3.4 3.6 -2
v 3.4 3.6 -2.1
v 3.4 4.3 -2
v 3.4 4.3 -2.1
v 3.4 4.6 -2
v 3.4 4.6 -2.1
v 3.5 3.6 -2
v 3.5 3.6 -2.1
v 3.5 4.3 -2
v 3.5 4.3 -2.1
v 0.6 3.6 -2
v 0.6 4.3 -2
v 0.7 3.3 -2
v 0.7 3.6 -2
v 0.7 4.3 -2
v 0.7 4.6 -2
v 0.8 3.1 -2
v 0.8 3.3 -2
v 0.8 4.6 -2
v 0.8 4.8 -2
v 0.9 3 -2
v 0.9 3.1 -2
v 0.9 4.8 -2
v 0.9 4.9 -2
v 1 2.9 -2
v 1 3 -2
v 1 4.9 -2
v 1 5 -2
v 1.1 2.8 -2
v 1.1 2.9 -2
v 1.1 5 -2
v 1.1 5.1 -2
v 1.2 2.7 -2
v 1.2 2.8 -2
v 1.2 3.2 -2
v 1.2 4.1 -2
v 1.2 5.1 -2
v 1.2 5.2 -2
v 1.3 3.3 -2
v 1.3 3.8 -2
v 1.3 4.1 -2
v 1.3 4.2 -2
v 1.4 2.6 -2
v 1.4 2.7 -2
v 1.4 4.1 -2
v 1.4 4.2 -2
v 1.4 4.3 -2
v 1.4 5.2 -2
v 1.4 5.3 -2
v 1.7 2.5 -2
v 1.7 2.6 -2
v 1.7 4.1 -2
v 1.7 4.2 -2
v 1.7 4.3 -2
v 1.7 4.8 -2
v 1.7 5.3 -2
v 1.7 5.4 -2
v 1.8 3.3 -2
v 1.8 3.8 -2
v 1.8 4.1 -2
v 1.8 4.5 -2
v 1.8 4.8 -2
v 1.8 4.9 -2
v 1.9 3.2 -2
v 1.9 3.5 -2
v 1.9 3.6 -2
v 1.9 4.1 -2
v 1.9 4.8 -2
v 1.9 4.9 -2
v 1.9 5 -2
v 2.1 3.2 -2
v 2.1 3.5 -2
v 2.1 3.6 -2
v 2.1 4.1 -2
v 2.2 3.3 -2
v 2.2 3.8 -2
v 2.2 4.1 -2
v 2.2 4.2 -2
v 2.2 4.8 -2
v 2.2 4.9 -2
v 2.2 5 -2
v 2.3 4.1 -2
v 2.3 4.2 -2
v 2.3 4.5 -2
v 2.3 4.8 -2
v 2.3 4.9 -2
v 2.4 2.5 -2
v 2.4 2.6 -2
v 2.4 4.3 -2
v 2.4 4.8 -2
v 2.4 5.3 -2
v 2.4 5.4 -2
v 2.6 4.1 -2
v 2.6 4.2 -2
v 2.6 4.3 -2
v 2.7 2.6 -2
v 2.7 2.7 -2
v 2.7 3.3 -2
v 2.7 3.8 -2
v 2.7 4.1 -2
v 2.7 4.2 -2
v 2.7 5.2 -2
v 2.7 5.3 -2
v 2.8 3.2 -2
v 2.8 4.1 -2
v 2.9 2.7 -2
v 2.9 2.8 -2
v 2.9 5.1 -2
v 2.9 5.2 -2
v 3 2.8 -2
v 3 2.9 -2
v 3 5 -2
v 3 5.1 -2
v 3.1 2.9 -2
v 3.1 3 -2
v 3.1 4.9 -2
v 3.1 5 -2
v 3.2 3 -2
v 3.2 3.1 -2
v 3.2 4.8 -2
v 3.2 4.9 -2
v 3.3 3.1 -2
v 3.3 3.3 -2
v 3.3 4.6 -2
v 3.3 4.8 -2
v 3.4 3.3 -2
v 3.4 3.6 -2
v 3.4 4.3 -2
v 3.4 4.6 -2
v 3.5 3.6 -2
v 3.5 4.3 -2
v 0.6 3.6 -2.1
v 0.6 4.3 -2.1
v 0.7 3.3 -2.1
v 0.7 3.6 -2.1
v 0.7 4.3 -2.1
v 0.7 4.6 -2.1
v 0.8 3.1 -2.1
v 0.8 3.3 -2.1
v 0.8 4.6 -2.1
v 0.8 4.8 -2.1
v 0.9 3 -2.1
v 0.9 3.1 -2.1
v 0.9 4.8 -2.1
v 0.9 4.9 -2.1
v 1 2.9 -2.1
v 1 3 -2.1
v 1 4.9 -2.1
v 1 5 -2.1
v 1.1 2.8 -2.1
v 1.1 2.9 -2.1
v 1.1 5 -2.1
v 1.1 5.1 -2.1
v 1.2 2.7 -2.1
v 1.2 2.8 -2.1
v 1.2 3.2 -2.1
v 1.2 4.1 -2.1
v 1.2 5.1 -2.1
v 1.2 5.2 -2.1
v 1.3 3.3 -2.1
v 1.3 3.8 -2.1
v 1.3 4.1 -2.1
v 1.3 4.2 -2.1
v 1.4 2.6 -2.1
v 1.4 2.7 -2.1
v 1.4 4.1 -2.1
v 1.4 4.2 -2.1
v 1.4 4.3 -2.1
v 1.4 5.2 -2.1
v 1.4 5.3 -2.1
v 1.7 2.5 -2.1
v 1.7 2.6 -2.1
v 1.7 4.1 -2.1
v 1.7 4.2 -2.1
v 1.7 4.3 -2.1
v 1.7 4.8 -2.1
v 1.7 5.3 -2.1
v 1.7 5.4 -2.1
v 1.8 3.3 -2.1
v 1.8 3.8 -2.1
v 1.8 4.1 -2.1
v 1.8 4.5 -2.1
v 1.8 4.8 -2.1
v 1.8 4.9 -2.1
v 1.9 3.2 -2.1
v 1.9 3.5 -2.1
v 1.9 3.6 -2.1
v 1.9 4.1 -2.1
v 1.9 4.8 -2.1
v 1.9 4.9 -2.1
v 1.9 5 -2.1
v 2.1 3.2 -2.1
v 2.1 3.5 -2.1
v 2.1 3.6 -2.1
v 2.1 4.1 -2.1
v 2.2 3.3 -2.1
v 2.2 3.8 -2.1
v 2.2 4.1 -2.1
v 2.2 4.2 -2.1
v 2.2 4.8 -2.1
v 2.2 4.9 -2.1
v 2.2 5 -2.1
v 2.3 4.1 -2.1
v 2.3 4.2 -2.1
v 2.3 4.5 -2.1
v 2.3 4.8 -2.1
v 2.3 4.9 -2.1
v 2.4 2.5 -2.1
v 2.4 2.6 -2.1
v 2.4 4.3 -2.1
v 2.4 4.8 -2.1
v 2.4 5.3 -2.1
v 2.4 5.4 -2.1
v 2.6 4.1 -2.1
v 2.6 4.2 -2.1
v 2.6 4.3 -2.1
v 2.7 2.6 -2.1
v 2.7 2.7 -2.1
v 2.7 3.3 -2.1
v 2.7 3.8 -2.1
v 2.7 4.1 -2.1
v 2.7 4.2 -2.1
v 2.7 5.2 -2.1
v 2.7 5.3 -2.1
v 2.8 3.2 -2.1
v 2.8 4.1 -2.1
v 2.9 2.7 -2.1
v 2.9 2.8 -2.1
v 2.9 5.1 -2.1
v 2.9 5.2 -2.1
v 3 2.8 -2.1
v 3 2.9 -2.1
v 3 5 -2.1
v 3 5.1 -2.1
v 3.1 2.9 -2.1
v 3.1 3 -2.1
v 3.1 4.9 -2.1
v 3.1 5 -2.1
v 3.2 3 -2.1
v 3.2 3.1 -2.1
v 3.2 4.8 -2.1
v 3.2 4.9 -2.1
v 3.3 3.1 -2.1
v 3.3 3.3 -2.1
v 3.3 4.6 -2.1
v 3.3 4.8 -2.1
v 3.4 3.3 -2.1
v 3.4 3.6 -2.1
v 3.4 4.3 -2.1
v 3.4 4.6 -2.1
v 3.5 3.6 -2.1
v 3.5 4.3 -2.1
v 1.7 2.5 -2
v 2.4 2.5 -2
v 1.7 2.5 -2.1
v 2.4 2.5 -2.1
v 1.4 2.6 -2
v 1.7 2.6 -2
v 2.4 2.6 -2
v 2.7 2.6 -2
v 1.4 2.6 -2.1
v 1.7 2.6 -2.1
v 2.4 2.6 -2.1
v 2.7 2.6 -2.1
v 1.2 2.7 -2
v 1.4 2.7 -2
v 2.7 2.7 -2
v 2.9 2.7 -2
v 1.2 2.7 -2.1
v 1.4 2.7 -2.1
v 2.7 2.7 -2.1
v 2.9 2.7 -2.1
v 1.1 2.8 -2
v 1.2 2.8 -2
v 2.9 2.8 -2
v 3 2.8 -2
v 1.1 2.8 -2.1
v 1.2 2.8 -2.1
v 2.9 2.8 -2.1
v 3 2.8 -2.1
v 1 2.9 -2
v 1.1 2.9 -2
v 3 2.9 -2
v 3.1 2.9 -2
v 1 2.9 -2.1
v 1.1 2.9 -2.1
v 3 2.9 -2.1
v 3.1 2.9 -2.1
v 0.9 3 -2
v 1 3 -2
v 3.1 3 -2
v 3.2 3 -2
v 0.9 3 -2.1
v 1 3 -2.1
v 3.1 3 -2.1
v 3.2 3 -2.1
v 0.8 3.1 -2
v 0.9 3.1 -2
v 3.2 3.1 -2
v 3.3 3.1 -2
v 0.8 3.1 -2.1
v 0.9 3.1 -2.1
v 3.2 3.1 -2.1
v 3.3 3.1 -2.1
v 0.7 3.3 -2
v 0.8 3.3 -2
v 3.3 3.3 -2
v 3.4 3.3 -2
v 0.7 3.3 -2.1
v 0.8 3.3 -2.1
v 3.3 3.3 -2.1
v 3.4 3.3 -2.1
v 0.6 3.6 -2
v 0.7 3.6 -2
v 3.4 3.6 -2
v 3.5 3.6 -2
v 0.6 3.6 -2.1
v 0.7 3.6 -2.1
v 3.4 3.6 -2.1
v 3.5 3.6 -2.1
v 0.6 4.3 -2
v 0.7 4.3 -2
v 3.4 4.3 -2
v 3.5 4.3 -2
v 0.6 4.3 -2.1
v 0.7 4.3 -2.1
v 3.4 4.3 -2.1
v 3.5 4.3 -2.1
v 0.7 4.6 -2
v 0.8 4.6 -2
v 3.3 4.6 -2
v 3.4 4.6 -2
v 0.7 4.6 -2.1
v 0.8 4.6 -2.1
v 3.3 4.6 -2.1
v 3.4 4.6 -2.1
v 0.8 4.8 -2
v 0.9 4.8 -2
v 3.2 4.8 -2
v 3.3 4.8 -2
v 0.8 4.8 -2.1
v 0.9 4.8 -2.1
v 3.2 4.8 -2.1
v 3.3 4.8 -2.1
v 0.9 4.9 -2
v 1 4.9 -2
v 3.1 4.9 -2
v 3.2 4.9 -2
v 0.9 4.9 -2.1
v 1 4.9 -2.1
v 3.1 4.9 -2.1
v 3.2 4.9 -2.1
v 1 5 -2
v 1.1 5 -2
v 3 5 -2
v 3.1 5 -2
v 1 5 -2.1
v 1.1 5 -2.1
v 3 5 -2.1
v 3.1 5 -2.1
v 1.1 5.1 -2
v 1.2 5.1 -2
v 2.9 5.1 -2
v 3 5.1 -2
v 1.1 5.1 -2.1
v 1.2 5.1 -2.1
v 2.9 5.1 -2.1
v 3 5.1 -2.1
v 1.2 5.2 -2
v 1.4 5.2 -2
v 2.7 5.2 -2
v 2.9 5.2 -2
v 1.2 5.2 -2.1
v 1.4 5.2 -2.1
v 2.7 5.2 -2.1
v 2.9 5.2 -2.1
v 1.4 5.3 -2
v 1.7 5.3 -2
v 2.4 5.3 -2
v 2.7 5.3 -2
v 1.4 5.3 -2.1
v 1.7 5.3 -2.1
v 2.4 5.3 -2.1
v 2.7 5.3 -2.1
v 1.7 5.4 -2
v 2.4 5.4 -2
v 1.7 5.4 -2.1
v 2.4 5.4 -2.1

# faces
f 3/1/1 2/1/1 1/1/1
f 4/1/1 2/1/1 3/1/1
f 7/1/1 6/1/1 5/1/1
f 8/1/1 6/1/1 7/1/1
f 11/1/1 10/1/1 9/1/1
f 12/1/1 10/1/1 11/1/1
f 15/1/1 14/1/1 13/1/1
f 16/1/1 14/1/1 15/1/1
f 19/1/1 18/1/1 17/1/1
f 20/1/1 18/1/1 19/1/1
f 23/1/1 22/1/1 21/1/1
f 24/1/1 22/1/1 23/1/1
f 27/1/1 26/1/1 25/1/1
f 28/1/1 26/1/1 27/1/1
f 31/1/1 30/1/1 29/1/1
f 32/1/1 30/1/1 31/1/1
f 35/1/1 34/1/1 33/1/1
f 36/1/1 34/1/1 35/1/1
f 39/1/1 38/1/1 37/1/1
f 40/1/1 38/1/1 39/1/1
f 43/1/1 42/1/1 41/1/1
f 44/1/1 42/1/1 43/1/1
f 47/1/1 46/1/1 45/1/1
f 48/1/1 46/1/1 47/1/1
f 51/1/1 50/1/1 49/1/1
f 52/1/1 50/1/1 51/1/1
f 55/1/1 54/1/1 53/1/1
f 56/1/1 54/1/1 55/1/1
f 59/1/1 58/1/1 57/1/1
f 60/1/1 58/1/1 59/1/1
f 63/1/1 62/1/1 61/1/1
f 64/1/1 62/1/1 63/1/1
f 67/1/1 66/1/1 65/1/1
f 68/1/1 66/1/1 67/1/1
f 69/1/2 70/1/2 71/1/2
f 71/1/2 70/1/2 72/1/2
f 73/1/2 74/1/2 75/1/2
f 75/1/2 74/1/2 76/1/2
f 77/1/2 78/1/2 79/1/2
f 79/1/2 78/1/2 80/1/2
f 81/1/2 82/1/2 83/1/2
f 83/1/2 82/1/2 84/1/2
f 85/1/2 86/1/2 87/1/2
f 87/1/2 86/1/2 88/1/2
f 89/1/2 90/1/2 91/1/2
f 91/1/2 90/1/2 92/1/2
f 93/1/2 94/1/2 95/1/2
f 95/1/2 94/1/2 96/1/2
f 97/1/2 98/1/2 99/1/2
f 99/1/2 98/1/2 100/1/2
f 101/1/2 102/1/2 103/1/2
f 103/1/2 102/1/2 104/1/2
f 105/1/2 106/1/2 107/1/2
f 107/1/2 106/1/2 108/1/2
f 109/1/2 110/1/2 111/1/2
f 111/1/2 110/1/2 112/1/2
f 113/1/2 114/1/2 115/1/2
f 115/1/2 114/1/2 116/1/2
f 117/1/2 118/1/2 119/1/2
f 119/1/2 118/1/2 120/1/2
f 121/1/2 122/1/2 123/1/2
f 123/1/2 122/1/2 124/1/2
f 125/1/2 126/1/2 127/1/2
f 127/1/2 126/1/2 128/1/2
f 129/1/2 130/1/2 131/1/2
f 131/1/2 130/1/2 132/1/2
f 133/1/2 134/1/2 135/1/2
f 135/1/2 134/1/2 136/1/2
f 140/1/3 138/1/3 137/1/3
f 141/1/3 138/1/3 140/1/3
f 144/1/3 140/1/3 139/1/3
f 144/1/3 142/1/3 141/1/3
f 144/1/3 141/1/3 140/1/3
f 145/1/3 142/1/3 144/1/3
f 148/1/3 144/1/3 143/1/3
f 148/1/3 146/1/3 145/1/3
f 148/1/3 145/1/3 144/1/3
f 149/1/3 146/1/3 148/1/3
f 152/1/3 148/1/3 147/1/3
f 152/1/3 150/1/3 149/1/3
f 152/1/3 149/1/3 148/1/3
f 153/1/3 150/1/3 152/1/3
f 156/1/3 152/1/3 151/1/3
f 156/1/3 154/1/3 153/1/3
f 156/1/3 153/1/3 152/1/3
f 157/1/3 154/1/3 156/1/3
f 160/1/3 156/1/3 155/1/3
f 160/1/3 158/1/3 157/1/3
f 160/1/3 157/1/3 156/1/3
f 161/1/3 158/1/3 160/1/3
f 162/1/3 158/1/3 161/1/3
f 163/1/3 158/1/3 162/1/3
f 165/4/3 162/4/3 161/4/3
f 166/4/3 162/4/3 165/4/3
f 167/1/3 164/1/3 163/1/3
f 167/4/3 162/4/3 166/4/3
f 167/1/3 163/1/3 162/1/3
f 168/1/3 164/1/3 167/1/3
f 170/1/3 160/1/3 159/1/3
f 170/1/3 161/1/3 160/1/3
f 171/4/3 168/4/3 167/4/3
f 171/3/3 167/3/3 166/3/3
f 172/1/3 164/1/3 168/1/3
f 172/4/3 168/4/3 171/4/3
f 173/1/3 164/1/3 172/1/3
f 174/1/3 164/1/3 173/1/3
f 177/1/3 170/1/3 169/1/3
f 178/3/3 171/3/3 166/3/3
f 178/3/3 172/3/3 171/3/3
f 179/4/3 173/4/3 172/4/3
f 179/3/3 172/3/3 178/3/3
f 180/1/3 175/1/3 174/1/3
f 180/4/3 173/4/3 179/4/3
f 180/1/3 174/1/3 173/1/3
f 181/1/3 175/1/3 180/1/3
f 182/1/3 175/1/3 181/1/3
f 184/2/3 166/2/3 165/2/3
f 184/4/3 165/4/3 161/4/3
f 185/3/3 178/3/3 166/3/3
f 185/2/3 166/2/3 184/2/3
f 186/4/3 179/4/3 178/4/3
f 186/3/3 178/3/3 185/3/3
f 186/4/3 180/4/3 179/4/3
f 186/4/3 181/4/3 180/4/3
f 187/4/3 181/4/3 186/4/3
f 188/1/3 183/1/3 182/1/3
f 188/4/3 181/4/3 187/4/3
f 188/1/3 182/1/3 181/1/3
f 189/1/3 183/1/3 188/1/3
f 190/1/3 177/1/3 176/1/3
f 190/4/3 185/4/3 184/4/3
f 190/4/3 186/4/3 185/4/3
f 190/1/3 161/1/3 170/1/3
f 190/1/3 170/1/3 177/1/3
f 190/4/3 184/4/3 161/4/3
f 191/4/3 186/4/3 190/4/3
f 192/4/3 186/4/3 191/4/3
f 193/2/3 187/2/3 186/2/3
f 193/4/3 186/4/3 192/4/3
f 194/4/3 189/4/3 188/4/3
f 194/3/3 188/3/3 187/3/3
f 195/1/3 183/1/3 189/1/3
f 195/4/3 189/4/3 194/4/3
f 196/1/3 183/1/3 195/1/3
f 197/1/3 190/1/3 176/1/3
f 197/1/3 191/1/3 190/1/3
f 198/4/3 192/4/3 191/4/3
f 198/1/3 191/1/3 197/1/3
f 199/2/3 193/2/3 192/2/3
f 199/4/3 192/4/3 198/4/3
f 200/2/3 187/2/3 193/2/3
f 200/2/3 193/2/3 199/2/3
f 201/4/3 199/4/3 198/4/3
f 201/4/3 198/4/3 197/4/3
f 201/4/3 200/4/3 199/4/3
f 202/4/3 200/4/3 201/4/3
f 203/2/3 187/2/3 200/2/3
f 203/4/3 200/4/3 202/4/3
f 204/2/3 187/2/3 203/2/3
f 205/3/3 194/3/3 187/3/3
f 205/3/3 195/3/3 194/3/3
f 206/4/3 196/4/3 195/4/3
f 206/3/3 195/3/3 205/3/3
f 207/1/3 183/1/3 196/1/3
f 207/4/3 196/4/3 206/4/3
f 208/4/3 204/4/3 203/4/3
f 208/3/3 203/3/3 202/3/3
f 209/2/3 187/2/3 204/2/3
f 209/4/3 204/4/3 208/4/3
f 210/3/3 205/3/3 187/3/3
f 210/2/3 187/2/3 209/2/3
f 211/4/3 206/4/3 205/4/3
f 211/3/3 205/3/3 210/3/3
f 212/1/3 207/1/3 206/1/3
f 212/4/3 206/4/3 211/4/3
f 213/1/3 197/1/3 176/1/3
f 214/1/3 197/1/3 213/1/3
f 215/4/3 210/4/3 209/4/3
f 215/4/3 211/4/3 210/4/3
f 216/1/3 212/1/3 211/1/3
f 216/4/3 211/4/3 215/4/3
f 217/1/3 207/1/3 212/1/3
f 217/1/3 212/1/3 216/1/3
f 217/1/3 183/1/3 207/1/3
f 218/1/3 183/1/3 217/1/3
f 219/3/3 208/3/3 202/3/3
f 219/3/3 209/3/3 208/3/3
f 220/4/3 215/4/3 209/4/3
f 220/3/3 209/3/3 219/3/3
f 221/1/3 216/1/3 215/1/3
f 221/4/3 215/4/3 220/4/3
f 221/1/3 217/1/3 216/1/3
f 222/1/3 197/1/3 214/1/3
f 223/1/3 197/1/3 222/1/3
f 224/2/3 202/2/3 201/2/3
f 224/4/3 201/4/3 197/4/3
f 225/3/3 219/3/3 202/3/3
f 225/2/3 202/2/3 224/2/3
f 226/4/3 220/4/3 219/4/3
f 226/3/3 219/3/3 225/3/3
f 227/1/3 221/1/3 220/1/3
f 227/4/3 220/4/3 226/4/3
f 228/1/3 217/1/3 221/1/3
f 228/1/3 221/1/3 227/1/3
f 229/1/3 217/1/3 228/1/3
f 230/1/3 197/1/3 223/1/3
f 230/4/3 225/4/3 224/4/3
f 230/4/3 224/4/3 197/4/3
f 230/4/3 226/4/3 225/4/3
f 231/1/3 228/1/3 227/1/3
f 231/4/3 226/4/3 230/4/3
f 231/1/3 227/1/3 226/1/3
f 232/1/3 230/1/3 223/1/3
f 232/1/3 231/1/3 230/1/3
f 233/1/3 231/1/3 232/1/3
f 234/1/3 228/1/3 231/1/3
f 234/1/3 231/1/3 233/1/3
f 235/1/3 228/1/3 234/1/3
f 236/1/3 234/1/3 233/1/3
f 237/1/3 234/1/3 236/1/3
f 238/1/3 234/1/3 237/1/3
f 239/1/3 234/1/3 238/1/3
f 240/1/3 238/1/3 237/1/3
f 241/1/3 238/1/3 240/1/3
f 242/1/3 238/1/3 241/1/3
f 243/1/3 238/1/3 242/1/3
f 244/1/3 242/1/3 241/1/3
f 245/1/3 242/1/3 244/1/3
f 246/1/3 242/1/3 245/1/3
f 247/1/3 242/1/3 246/1/3
f 248/1/3 246/1/3 245/1/3
f 249/1/3 246/1/3 248/1/3
f 250/1/3 246/1/3 249/1/3
f 251/1/3 246/1/3 250/1/3
f 252/1/3 250/1/3 249/1/3
f 253/1/3 250/1/3 252/1/3
f 254/1/3 250/1/3 253/1/3
f 255/1/3 250/1/3 254/1/3
f 256/1/3 254/1/3 253/1/3
f 257/1/3 254/1/3 256/1/3
f 258/1/4 259/1/4 261/1/4
f 261/1/4 259/1/4 262/1/4
f 260/1/4 261/1/4 265/1/4
f 262/1/4 263/1/4 265/1/4
f 261/1/4 262/1/4 265/1/4
f 265/1/4 263/1/4 266/1/4
f 264/1/4 265/1/4 269/1/4
f 266/1/4 267/1/4 269/1/4
f 265/1/4 266/1/4 269/1/4
f 269/1/4 267/1/4 270/1/4
f 268/1/4 269/1/4 273/1/4
f 270/1/4 271/1/4 273/1/4
f 269/1/4 270/1/4 273/1/4
f 273/1/4 271/1/4 274/1/4
f 272/1/4 273/1/4 277/1/4
f 274/1/4 275/1/4 277/1/4
f 273/1/4 274/1/4 277/1/4
f 277/1/4 275/1/4 278/1/4
f 276/1/4 277/1/4 281/1/4
f 278/1/4 279/1/4 281/1/4
f 277/1/4 278/1/4 281/1/4
f 281/1/4 279/1/4 282/1/4
f 282/1/4 279/1/4 283/1/4
f 283/1/4 279/1/4 284/1/4
f 282/4/4 283/4/4 286/4/4
f 286/4/4 283/4/4 287/4/4
f 284/1/4 285/1/4 288/1/4
f 287/4/4 283/4/4 288/4/4
f 283/1/4 284/1/4 288/1/4
f 288/1/4 285/1/4 289/1/4
f 280/1/4 281/1/4 291/1/4
f 281/1/4 282/1/4 291/1/4
f 288/4/4 289/4/4 292/4/4
f 287/3/4 288/3/4 292/3/4
f 289/1/4 285/1/4 293/1/4
f 292/4/4 289/4/4 293/4/4
f 293/1/4 285/1/4 294/1/4
f 294/1/4 285/1/4 295/1/4
f 290/1/4 291/1/4 298/1/4
f 287/3/4 292/3/4 299/3/4
f 292/3/4 293/3/4 299/3/4
f 293/4/4 294/4/4 300/4/4
f 299/3/4 293/3/4 300/3/4
f 295/1/4 296/1/4 301/1/4
f 300/4/4 294/4/4 301/4/4
f 294/1/4 295/1/4 301/1/4
f 301/1/4 296/1/4 302/1/4
f 302/1/4 296/1/4 303/1/4
f 286/2/4 287/2/4 305/2/4
f 282/4/4 286/4/4 305/4/4
f 287/3/4 299/3/4 306/3/4
f 305/2/4 287/2/4 306/2/4
f 299/4/4 300/4/4 307/4/4
f 306/3/4 299/3/4 307/3/4
f 300/4/4 301/4/4 307/4/4
f 301/4/4 302/4/4 307/4/4
f 307/4/4 302/4/4 308/4/4
f 303/1/4 304/1/4 309/1/4
f 308/4/4 302/4/4 309/4/4
f 302/1/4 303/1/4 309/1/4
f 309/1/4 304/1/4 310/1/4
f 297/1/4 298/1/4 311/1/4
f 305/4/4 306/4/4 311/4/4
f 306/4/4 307/4/4 311/4/4
f 291/1/4 282/1/4 311/1/4
f 298/1/4 291/1/4 311/1/4
f 282/4/4 305/4/4 311/4/4
f 311/4/4 307/4/4 312/4/4
f 312/4/4 307/4/4 313/4/4
f 307/2/4 308/2/4 314/2/4
f 313/4/4 307/4/4 314/4/4
f 309/4/4 310/4/4 315/4/4
f 308/3/4 309/3/4 315/3/4
f 310/1/4 304/1/4 316/1/4
f 315/4/4 310/4/4 316/4/4
f 316/1/4 304/1/4 317/1/4
f 297/1/4 311/1/4 318/1/4
f 311/1/4 312/1/4 318/1/4
f 312/4/4 313/4/4 319/4/4
f 318/1/4 312/1/4 319/1/4
f 313/2/4 314/2/4 320/2/4
f 319/4/4 313/4/4 320/4/4
f 314/2/4 308/2/4 321/2/4
f 320/2/4 314/2/4 321/2/4
f 319/4/4 320/4/4 322/4/4
f 318/4/4 319/4/4 322/4/4
f 320/4/4 321/4/4 322/4/4
f 322/4/4 321/4/4 323/4/4
f 321/2/4 308/2/4 324/2/4
f 323/4/4 321/4/4 324/4/4
f 324/2/4 308/2/4 325/2/4
f 308/3/4 315/3/4 326/3/4
f 315/3/4 316/3/4 326/3/4
f 316/4/4 317/4/4 327/4/4
f 326/3/4 316/3/4 327/3/4
f 317/1/4 304/1/4 328/1/4
f 327/4/4 317/4/4 328/4/4
f 324/4/4 325/4/4 329/4/4
f 323/3/4 324/3/4 329/3/4
f 325/2/4 308/2/4 330/2/4
f 329/4/4 325/4/4 330/4/4
f 308/3/4 326/3/4 331/3/4
f 330/2/4 308/2/4 331/2/4
f 326/4/4 327/4/4 332/4/4
f 331/3/4 326/3/4 332/3/4
f 327/1/4 328/1/4 333/1/4
f 332/4/4 327/4/4 333/4/4
f 297/1/4 318/1/4 334/1/4
f 334/1/4 318/1/4 335/1/4
f 330/4/4 331/4/4 336/4/4
f 331/4/4 332/4/4 336/4/4
f 332/1/4 333/1/4 337/1/4
f 336/4/4 332/4/4 337/4/4
f 333/1/4 328/1/4 338/1/4
f 337/1/4 333/1/4 338/1/4
f 328/1/4 304/1/4 338/1/4
f 338/1/4 304/1/4 339/1/4
f 323/3/4 329/3/4 340/3/4
f 329/3/4 330/3/4 340/3/4
f 330/4/4 336/4/4 341/4/4
f 340/3/4 330/3/4 341/3/4
f 336/1/4 337/1/4 342/1/4
f 341/4/4 336/4/4 342/4/4
f 337/1/4 338/1/4 342/1/4
f 335/1/4 318/1/4 343/1/4
f 343/1/4 318/1/4 344/1/4
f 322/2/4 323/2/4 345/2/4
f 318/4/4 322/4/4 345/4/4
f 323/3/4 340/3/4 346/3/4
f 345/2/4 323/2/4 346/2/4
f 340/4/4 341/4/4 347/4/4
f 346/3/4 340/3/4 347/3/4
f 341/1/4 342/1/4 348/1/4
f 347/4/4 341/4/4 348/4/4
f 342/1/4 338/1/4 349/1/4
f 348/1/4 342/1/4 349/1/4
f 349/1/4 338/1/4 350/1/4
f 344/1/4 318/1/4 351/1/4
f 345/4/4 346/4/4 351/4/4
f 318/4/4 345/4/4 351/4/4
f 346/4/4 347/4/4 351/4/4
f 348/1/4 349/1/4 352/1/4
f 351/4/4 347/4/4 352/4/4
f 347/1/4 348/1/4 352/1/4
f 344/1/4 351/1/4 353/1/4
f 351/1/4 352/1/4 353/1/4
f 353/1/4 352/1/4 354/1/4
f 352/1/4 349/1/4 355/1/4
f 354/1/4 352/1/4 355/1/4
f 355/1/4 349/1/4 356/1/4
f 354/1/4 355/1/4 357/1/4
f 357/1/4 355/1/4 358/1/4
f 358/1/4 355/1/4 359/1/4
f 359/1/4 355/1/4 360/1/4
f 358/1/4 359/1/4 361/1/4
f 361/1/4 359/1/4 362/1/4
f 362/1/4 359/1/4 363/1/4
f 363/1/4 359/1/4 364/1/4
f 362/1/4 363/1/4 365/1/4
f 365/1/4 363/1/4 366/1/4
f 366/1/4 363/1/4 367/1/4
f 367/1/4 363/1/4 368/1/4
f 366/1/4 367/1/4 369/1/4
f 369/1/4 367/1/4 370/1/4
f 370/1/4 367/1/4 371/1/4
f 371/1/4 367/1/4 372/1/4
f 370/1/4 371/1/4 373/1/4
f 373/1/4 371/1/4 374/1/4
f 374/1/4 371/1/4 375/1/4
f 375/1/4 371/1/4 376/1/4
f 374/1/4 375/1/4 377/1/4
f 377/1/4 375/1/4 378/1/4
f 381/1/5 380/1/5 379/1/5
f 382/1/5 380/1/5 381/1/5
f 387/1/5 384/1/5 383/1/5
f 388/1/5 384/1/5 387/1/5
f 389/1/5 386/1/5 385/1/5
f 390/1/5 386/1/5 389/1/5
f 395/1/5 392/1/5 391/1/5
f 396/1/5 392/1/5 395/1/5
f 397/1/5 394/1/5 393/1/5
f 398/1/5 394/1/5 397/1/5
f 403/1/5 400/1/5 399/1/5
f 404/1/5 400/1/5 403/1/5
f 405/1/5 402/1/5 401/1/5
f 406/1/5 402/1/5 405/1/5
f 411/1/5 408/1/5 407/1/5
f 412/1/5 408/1/5 411/1/5
f 413/1/5 410/1/5 409/1/5
f 414/1/5 410/1/5 413/1/5
f 419/1/5 416/1/5 415/1/5
f 420/1/5 416/1/5 419/1/5
f 421/1/5 418/1/5 417/1/5
f 422/1/5 418/1/5 421/1/5
f 427/1/5 424/1/5 423/1/5
f 428/1/5 424/1/5 427/1/5
f 429/1/5 426/1/5 425/1/5
f 430/1/5 426/1/5 429/1/5
f 435/1/5 432/1/5 431/1/5
f 436/1/5 432/1/5 435/1/5
f 437/1/5 434/1/5 433/1/5
f 438/1/5 434/1/5 437/1/5
f 443/1/5 440/1/5 439/1/5
f 444/1/5 440/1/5 443/1/5
f 445/1/5 442/1/5 441/1/5
f 446/1/5 442/1/5 445/1/5
f 447/1/6 448/1/6 451/1/6
f 451/1/6 448/1/6 452/1/6
f 449/1/6 450/1/6 453/1/6
f 453/1/6 450/1/6 454/1/6
f 455/1/6 456/1/6 459/1/6
f 459/1/6 456/1/6 460/1/6
f 457/1/6 458/1/6 461/1/6
f 461/1/6 458/1/6 462/1/6
f 463/1/6 464/1/6 467/1/6
f 467/1/6 464/1/6 468/1/6
f 465/1/6 466/1/6 469/1/6
f 469/1/6 466/1/6 470/1/6
f 471/1/6 472/1/6 475/1/6
f 475/1/6 472/1/6 476/1/6
f 473/1/6 474/1/6 477/1/6
f 477/1/6 474/1/6 478/1/6
f 479/1/6 480/1/6 483/1/6
f 483/1/6 480/1/6 484/1/6
f 481/1/6 482/1/6 485/1/6
f 485/1/6 482/1/6 486/1/6
f 487/1/6 488/1/6 491/1/6
f 491/1/6 488/1/6 492/1/6
f 489/1/6 490/1/6 493/1/6
f 493/1/6 490/1/6 494/1/6
f 495/1/6 496/1/6 499/1/6
f 499/1/6 496/1/6 500/1/6
f 497/1/6 498/1/6 501/1/6
f 501/1/6 498/1/6 502/1/6
f 503/1/6 504/1/6 507/1/6
f 507/1/6 504/1/6 508/1/6
f 505/1/6 506/1/6 509/1/6
f 509/1/6 506/1/6 510/1/6
f 511/1/6 512/1/6 513/1/6
f 513/1/6 512/1/6 514/1/6
